<svg xmlns="http://www.w3.org/2000/svg" viewBox="0 0 142.06 147.13"><g id="Layer_2" data-name="Layer 2"><g id="Layer_5" data-name="Layer 5"><rect x="0.33" y="0.12" width="65.84" height="65.84" rx="3.9" style="fill:#3c72a6"/><rect x="76.23" width="65.84" height="65.84" rx="3.9" style="fill:#d8982e"/><path d="M98.69,10.87,97.18,11l-.45.08a10.65,10.65,0,0,0-5,2.09A15.57,15.57,0,0,0,90,14.93c-.16.21-.33.42-.37.46l-.14.2a1.2,1.2,0,0,1-.1.15c-.07.06-.63.91-1,1.55a31,31,0,0,0-1.49,2.86l-.27.61c-.32.71-1,2.62-1.12,2.94a2.84,2.84,0,0,0-.06.28,2.89,2.89,0,0,0,.1,1.65c.18.34.73.45,1.67.32a2.66,2.66,0,0,0,1.23-.41,3.2,3.2,0,0,0,.81-.83,1,1,0,0,1,.14-.2l.15-.23.18-.25.29-.4a12.67,12.67,0,0,1,1.51-1.79,6.55,6.55,0,0,1,3.91-2,13.11,13.11,0,0,1,1.48-.11,3,3,0,0,1,1.15,0c.48.16.54.44.43,1.84,0,.17,0,.47,0,.65-.08,1.15-.19,2.64-.23,3-.09.92-.12,1.17-.17,1.79-.09.86-.16,1.5-.19,1.73s0,.35-.07.54-.07.6-.11.88-.08.64-.11.79-.06.42-.09.6c-.06.46-.17,1.11-.25,1.6,0,.22-.08.45-.09.52s-.19,1-.23,1.14l-.12.63c-.11.53-.31,1.37-.59,2.41a22.36,22.36,0,0,1-3.51,7.24l-.28.4-.1.14c-.08.07-.82,1.18-1.12,1.68a8.51,8.51,0,0,0-1.25,3.06,7.21,7.21,0,0,0,0,2.27,4.23,4.23,0,0,0,2.42,3.08,5.12,5.12,0,0,0,3.85,0,6.68,6.68,0,0,0,1.23-.62,7.45,7.45,0,0,0,1.08-1,1.38,1.38,0,0,1,.25-.27s.07-.06.11-.14a1.22,1.22,0,0,1,.13-.19,2.22,2.22,0,0,0,.19-.26A17.89,17.89,0,0,0,101.4,48a58.2,58.2,0,0,0,1.15-6c.31-2.28.52-4,.72-6.09a3.53,3.53,0,0,1,0-.38c0-.19,0-.45.13-1.39,0-.41.08-.85.09-1s.09-1.06.14-1.53c0-.15,0-.5.06-.78,0-.48.29-3.57.34-4.3,0-.17,0-.44,0-.6,0-.43.07-.87.09-1.33,0-.23,0-.54.05-.7s0-.6.07-1c.16-2.6.18-2.7.33-2.95a.78.78,0,0,1,.29-.21c.21-.1.22-.1,4.33-.11,3.87,0,4.13,0,4.33.07a.65.65,0,0,1,.33.24c.1.14.11.18.08.63,0,.26,0,.54,0,.63l-.07.62c0,.27-.06.68-.09.93-.11,1-.2,1.93-.25,2.47,0,.12,0,.32,0,.45-.06.62-.06.61-.2,2.09s-.22,2.35-.25,2.76c0,.15,0,.39,0,.52s0,.39,0,.56,0,.42,0,.54,0,.38,0,.56c-.09,1.29-.12,1.68-.16,2.3,0,.39,0,.86-.06,1s0,.57,0,.87,0,1-.07,1.52a54.8,54.8,0,0,0,.23,6.88c0,.22.06.48.07.57s0,.31.07.48,0,.35.06.41.14.87.2,1.11a11.88,11.88,0,0,0,2.09,5c.12.16.25.32.29.36l.23.26a9,9,0,0,0,1.55,1.34,7.38,7.38,0,0,0,5,1.21,9.6,9.6,0,0,0,3.14-.92,10.53,10.53,0,0,0,1.56-1,11.88,11.88,0,0,0,2.06-2,1.06,1.06,0,0,1,.18-.22.41.41,0,0,0,.08-.13.21.21,0,0,1,0-.09,12.36,12.36,0,0,0,1.35-2.53,25.08,25.08,0,0,0,1.5-6.3,1.67,1.67,0,0,0-1.62-2,1.8,1.8,0,0,0-1.68.86c-.08.14-.23.48-.35.77A6.55,6.55,0,0,1,127.26,45a2.8,2.8,0,0,1-.75.63,3.91,3.91,0,0,1-3.48.25,4.3,4.3,0,0,1-1-.55,8.44,8.44,0,0,1-.79-.8,2.88,2.88,0,0,0-.19-.24,7.28,7.28,0,0,1-.7-1.54,12.63,12.63,0,0,1-.49-3c-.08-1.57,0-5.58.15-8.11.07-1.12.16-2.53.18-2.77s0-.38,0-.51c.18-2.07.39-4.16.59-5.73.32-2.57.33-2.63.81-2.84.16-.08.45-.09,4.11-.11a32.13,32.13,0,0,0,4.23-.1l.71-.15a3.4,3.4,0,0,0,.66-.18,1.72,1.72,0,0,0,.95-1.14,15.28,15.28,0,0,0,.09-2.68c0-1.61,0-2.55,0-2.81a1.8,1.8,0,0,0-1-1.48c-.6-.29.4-.27-16.83-.26C106,10.85,98.81,10.86,98.69,10.87Z" style="fill:#fff"/><path d="M43.63,47.79H23.36l-3.49,9.9H11.58L28.93,9.2h9.2L55.47,57.69H47.11ZM41.4,41.31l-7.87-22.5-7.94,22.5Z" style="fill:#fff"/><rect y="80.58" width="65.84" height="65.84" rx="3.9" style="fill:#d99830"/><rect x="75.9" y="80.46" width="65.84" height="65.84" rx="3.9" style="fill:#3c71a5"/><path d="M10.56,91.64a10.47,10.47,0,0,1,7.63-2.89,10.45,10.45,0,0,1,7.63,2.89,10.66,10.66,0,0,1,3,8,10.76,10.76,0,0,1-3,8,10.4,10.4,0,0,1-7.63,2.93,10.41,10.41,0,0,1-7.63-2.93,10.76,10.76,0,0,1-3-8A10.66,10.66,0,0,1,10.56,91.64Zm3.24,8c0,4.08,1.47,6.13,4.39,6.13a3.83,3.83,0,0,0,3.24-1.5,7.57,7.57,0,0,0,1.15-4.63q0-6.06-4.39-6.06C15.27,93.56,13.8,95.58,13.8,99.62Zm36.3-10L22.3,138.14H14.5L42.3,89.65ZM38.92,120.13a10.47,10.47,0,0,1,7.63-2.89,10.38,10.38,0,0,1,7.55,2.89,12.25,12.25,0,0,1,0,16,10.29,10.29,0,0,1-7.55,2.93,10.38,10.38,0,0,1-7.63-2.93,12.28,12.28,0,0,1,0-16Zm3.17,8q0,6.06,4.39,6.06c2.92,0,4.39-2,4.39-6.06s-1.47-6.06-4.39-6.06S42.09,124.07,42.09,128.11Z" style="fill:#fff"/><path d="M127.5,90.44v48.41h-7.94V117.68H96.78v21.17h-8V90.44h8V111.2h22.78V90.44Z" style="fill:#fff"/></g></g></svg>